<svg width="49" height="13" viewBox="0 0 49 13" fill="none" xmlns="http://www.w3.org/2000/svg">
<path d="M8.27589 9.728H3.61989L2.81989 12H0.915887L4.89989 0.863999H7.01189L10.9959 12H9.07589L8.27589 9.728ZM7.76389 8.24L5.95589 3.072L4.13189 8.24H7.76389ZM14.5521 4.496C14.8615 4.06933 15.2828 3.72267 15.8161 3.456C16.3601 3.17867 16.9628 3.04 17.6241 3.04C18.4028 3.04 19.1068 3.22667 19.7361 3.6C20.3655 3.97333 20.8615 4.50667 21.2241 5.2C21.5868 5.88267 21.7681 6.66667 21.7681 7.552C21.7681 8.43733 21.5868 9.232 21.2241 9.936C20.8615 10.6293 20.3601 11.1733 19.7201 11.568C19.0908 11.952 18.3921 12.144 17.6241 12.144C16.9415 12.144 16.3335 12.0107 15.8001 11.744C15.2775 11.4773 14.8615 11.136 14.5521 10.72V12H12.7281V0.16H14.5521V4.496ZM19.9121 7.552C19.9121 6.944 19.7841 6.42133 19.5281 5.984C19.2828 5.536 18.9521 5.2 18.5361 4.976C18.1308 4.74133 17.6935 4.624 17.2241 4.624C16.7655 4.624 16.3281 4.74133 15.9121 4.976C15.5068 5.21067 15.1761 5.552 14.9201 6C14.6748 6.448 14.5521 6.976 14.5521 7.584C14.5521 8.192 14.6748 8.72533 14.9201 9.184C15.1761 9.632 15.5068 9.97333 15.9121 10.208C16.3281 10.4427 16.7655 10.56 17.2241 10.56C17.6935 10.56 18.1308 10.4427 18.5361 10.208C18.9521 9.96267 19.2828 9.61067 19.5281 9.152C19.7841 8.69333 19.9121 8.16 19.9121 7.552ZM27.3959 12.144C26.5639 12.144 25.8119 11.9573 25.1399 11.584C24.4679 11.2 23.9399 10.6667 23.5559 9.984C23.1719 9.29067 22.9799 8.49067 22.9799 7.584C22.9799 6.688 23.1772 5.89333 23.5719 5.2C23.9666 4.50667 24.5052 3.97333 25.1879 3.6C25.8706 3.22667 26.6332 3.04 27.4759 3.04C28.3186 3.04 29.0812 3.22667 29.7639 3.6C30.4466 3.97333 30.9852 4.50667 31.3799 5.2C31.7746 5.89333 31.9719 6.688 31.9719 7.584C31.9719 8.48 31.7692 9.27467 31.3639 9.968C30.9586 10.6613 30.4039 11.2 29.6999 11.584C29.0066 11.9573 28.2386 12.144 27.3959 12.144ZM27.3959 10.56C27.8652 10.56 28.3026 10.448 28.7079 10.224C29.1239 10 29.4599 9.664 29.7159 9.216C29.9719 8.768 30.0999 8.224 30.0999 7.584C30.0999 6.944 29.9772 6.40533 29.7319 5.968C29.4866 5.52 29.1612 5.184 28.7559 4.96C28.3506 4.736 27.9132 4.624 27.4439 4.624C26.9746 4.624 26.5372 4.736 26.1319 4.96C25.7372 5.184 25.4226 5.52 25.1879 5.968C24.9532 6.40533 24.8359 6.944 24.8359 7.584C24.8359 8.53333 25.0759 9.26933 25.5559 9.792C26.0466 10.304 26.6599 10.56 27.3959 10.56ZM41.759 3.184V12H39.935V10.96C39.647 11.3227 39.2683 11.6107 38.799 11.824C38.3403 12.0267 37.8497 12.128 37.327 12.128C36.6337 12.128 36.0097 11.984 35.455 11.696C34.911 11.408 34.479 10.9813 34.159 10.416C33.8497 9.85067 33.695 9.168 33.695 8.368V3.184H35.503V8.096C35.503 8.88533 35.7003 9.49333 36.095 9.92C36.4897 10.336 37.0283 10.544 37.711 10.544C38.3937 10.544 38.9323 10.336 39.327 9.92C39.7323 9.49333 39.935 8.88533 39.935 8.096V3.184H41.759ZM46.2936 4.672V9.552C46.2936 9.88267 46.3683 10.1227 46.5176 10.272C46.6776 10.4107 46.9443 10.48 47.3176 10.48H48.4376V12H46.9976C46.1763 12 45.547 11.808 45.1096 11.424C44.6723 11.04 44.4536 10.416 44.4536 9.552V4.672H43.4136V3.184H44.4536V0.992H46.2936V3.184H48.4376V4.672H46.2936Z" fill="black"/>
</svg>
