<svg width="65" height="13" viewBox="0 0 65 13" fill="none" xmlns="http://www.w3.org/2000/svg">
<path d="M0.189412 6.416C0.189412 5.328 0.440079 4.352 0.941412 3.488C1.45341 2.624 2.14141 1.952 3.00541 1.472C3.88008 0.981332 4.83475 0.735999 5.86941 0.735999C7.05341 0.735999 8.10408 1.02933 9.02141 1.616C9.94941 2.192 10.6214 3.01333 11.0374 4.08H8.84541C8.55741 3.49333 8.15741 3.056 7.64541 2.768C7.13341 2.48 6.54141 2.336 5.86941 2.336C5.13341 2.336 4.47741 2.50133 3.90141 2.832C3.32541 3.16267 2.87208 3.63733 2.54141 4.256C2.22141 4.87467 2.06141 5.59467 2.06141 6.416C2.06141 7.23733 2.22141 7.95733 2.54141 8.576C2.87208 9.19467 3.32541 9.67467 3.90141 10.016C4.47741 10.3467 5.13341 10.512 5.86941 10.512C6.54141 10.512 7.13341 10.368 7.64541 10.08C8.15741 9.792 8.55741 9.35467 8.84541 8.768H11.0374C10.6214 9.83467 9.94941 10.656 9.02141 11.232C8.10408 11.808 7.05341 12.096 5.86941 12.096C4.82408 12.096 3.86941 11.856 3.00541 11.376C2.14141 10.8853 1.45341 10.208 0.941412 9.344C0.440079 8.48 0.189412 7.504 0.189412 6.416ZM16.9964 12.144C16.1644 12.144 15.4124 11.9573 14.7404 11.584C14.0684 11.2 13.5404 10.6667 13.1564 9.984C12.7724 9.29067 12.5804 8.49067 12.5804 7.584C12.5804 6.688 12.7777 5.89333 13.1724 5.2C13.5671 4.50667 14.1057 3.97333 14.7884 3.6C15.4711 3.22667 16.2337 3.04 17.0764 3.04C17.9191 3.04 18.6817 3.22667 19.3644 3.6C20.0471 3.97333 20.5857 4.50667 20.9804 5.2C21.3751 5.89333 21.5724 6.688 21.5724 7.584C21.5724 8.48 21.3697 9.27467 20.9644 9.968C20.5591 10.6613 20.0044 11.2 19.3004 11.584C18.6071 11.9573 17.8391 12.144 16.9964 12.144ZM16.9964 10.56C17.4657 10.56 17.9031 10.448 18.3084 10.224C18.7244 10 19.0604 9.664 19.3164 9.216C19.5724 8.768 19.7004 8.224 19.7004 7.584C19.7004 6.944 19.5777 6.40533 19.3324 5.968C19.0871 5.52 18.7617 5.184 18.3564 4.96C17.9511 4.736 17.5137 4.624 17.0444 4.624C16.5751 4.624 16.1377 4.736 15.7324 4.96C15.3377 5.184 15.0231 5.52 14.7884 5.968C14.5537 6.40533 14.4364 6.944 14.4364 7.584C14.4364 8.53333 14.6764 9.26933 15.1564 9.792C15.6471 10.304 16.2604 10.56 16.9964 10.56ZM27.8235 3.04C28.5169 3.04 29.1355 3.184 29.6795 3.472C30.2342 3.76 30.6662 4.18667 30.9755 4.752C31.2849 5.31733 31.4395 6 31.4395 6.8V12H29.6315V7.072C29.6315 6.28267 29.4342 5.68 29.0395 5.264C28.6449 4.83733 28.1062 4.624 27.4235 4.624C26.7409 4.624 26.1969 4.83733 25.7915 5.264C25.3969 5.68 25.1995 6.28267 25.1995 7.072V12H23.3755V3.184H25.1995V4.192C25.4982 3.82933 25.8769 3.54667 26.3355 3.344C26.8049 3.14133 27.3009 3.04 27.8235 3.04ZM35.8942 4.672V9.552C35.8942 9.88267 35.9688 10.1227 36.1182 10.272C36.2782 10.4107 36.5448 10.48 36.9182 10.48H38.0382V12H36.5982C35.7768 12 35.1475 11.808 34.7102 11.424C34.2728 11.04 34.0542 10.416 34.0542 9.552V4.672H33.0142V3.184H34.0542V0.992H35.8942V3.184H38.0382V4.672H35.8942ZM39.1113 7.552C39.1113 6.66667 39.2926 5.88267 39.6553 5.2C40.0286 4.51733 40.53 3.98933 41.1593 3.616C41.7993 3.232 42.5033 3.04 43.2713 3.04C43.9646 3.04 44.5673 3.17867 45.0793 3.456C45.602 3.72267 46.018 4.05867 46.3273 4.464V3.184H48.1673V12H46.3273V10.688C46.018 11.104 45.5966 11.4507 45.0633 11.728C44.53 12.0053 43.922 12.144 43.2393 12.144C42.482 12.144 41.7886 11.952 41.1593 11.568C40.53 11.1733 40.0286 10.6293 39.6553 9.936C39.2926 9.232 39.1113 8.43733 39.1113 7.552ZM46.3273 7.584C46.3273 6.976 46.1993 6.448 45.9433 6C45.698 5.552 45.3726 5.21067 44.9673 4.976C44.562 4.74133 44.1246 4.624 43.6553 4.624C43.186 4.624 42.7486 4.74133 42.3433 4.976C41.938 5.2 41.6073 5.536 41.3513 5.984C41.106 6.42133 40.9833 6.944 40.9833 7.552C40.9833 8.16 41.106 8.69333 41.3513 9.152C41.6073 9.61067 41.938 9.96267 42.3433 10.208C42.7593 10.4427 43.1966 10.56 43.6553 10.56C44.1246 10.56 44.562 10.4427 44.9673 10.208C45.3726 9.97333 45.698 9.632 45.9433 9.184C46.1993 8.72533 46.3273 8.192 46.3273 7.584ZM49.955 7.584C49.955 6.67733 50.1364 5.88267 50.499 5.2C50.8724 4.50667 51.3844 3.97333 52.035 3.6C52.6857 3.22667 53.4324 3.04 54.275 3.04C55.3417 3.04 56.2217 3.296 56.915 3.808C57.619 4.30933 58.0937 5.02933 58.339 5.968H56.371C56.211 5.53067 55.955 5.18933 55.603 4.944C55.251 4.69867 54.8084 4.576 54.275 4.576C53.5284 4.576 52.931 4.84267 52.483 5.376C52.0457 5.89867 51.827 6.63467 51.827 7.584C51.827 8.53333 52.0457 9.27467 52.483 9.808C52.931 10.3413 53.5284 10.608 54.275 10.608C55.331 10.608 56.0297 10.144 56.371 9.216H58.339C58.083 10.112 57.603 10.8267 56.899 11.36C56.195 11.8827 55.3204 12.144 54.275 12.144C53.4324 12.144 52.6857 11.9573 52.035 11.584C51.3844 11.2 50.8724 10.6667 50.499 9.984C50.1364 9.29067 49.955 8.49067 49.955 7.584ZM62.2848 4.672V9.552C62.2848 9.88267 62.3595 10.1227 62.5088 10.272C62.6688 10.4107 62.9355 10.48 63.3088 10.48H64.4288V12H62.9888C62.1675 12 61.5381 11.808 61.1008 11.424C60.6635 11.04 60.4448 10.416 60.4448 9.552V4.672H59.4048V3.184H60.4448V0.992H62.2848V3.184H64.4288V4.672H62.2848Z" fill="black"/>
</svg>
