<svg width="47" height="13" viewBox="0 0 47 13" fill="none" xmlns="http://www.w3.org/2000/svg">
<path d="M9.08 0.879999V12H7.256V7.136H2.024V12H0.2V0.879999H2.024V5.648H7.256V0.879999H9.08ZM15.3053 12.144C14.4733 12.144 13.7213 11.9573 13.0493 11.584C12.3773 11.2 11.8493 10.6667 11.4653 9.984C11.0813 9.29067 10.8893 8.49067 10.8893 7.584C10.8893 6.688 11.0866 5.89333 11.4813 5.2C11.8759 4.50667 12.4146 3.97333 13.0973 3.6C13.7799 3.22667 14.5426 3.04 15.3853 3.04C16.2279 3.04 16.9906 3.22667 17.6733 3.6C18.3559 3.97333 18.8946 4.50667 19.2893 5.2C19.6839 5.89333 19.8813 6.688 19.8813 7.584C19.8813 8.48 19.6786 9.27467 19.2733 9.968C18.8679 10.6613 18.3133 11.2 17.6093 11.584C16.9159 11.9573 16.1479 12.144 15.3053 12.144ZM15.3053 10.56C15.7746 10.56 16.2119 10.448 16.6173 10.224C17.0333 10 17.3693 9.664 17.6253 9.216C17.8813 8.768 18.0093 8.224 18.0093 7.584C18.0093 6.944 17.8866 6.40533 17.6413 5.968C17.3959 5.52 17.0706 5.184 16.6653 4.96C16.2599 4.736 15.8226 4.624 15.3533 4.624C14.8839 4.624 14.4466 4.736 14.0413 4.96C13.6466 5.184 13.3319 5.52 13.0973 5.968C12.8626 6.40533 12.7453 6.944 12.7453 7.584C12.7453 8.53333 12.9853 9.26933 13.4653 9.792C13.9559 10.304 14.5693 10.56 15.3053 10.56ZM32.3564 3.04C33.0497 3.04 33.6684 3.184 34.2124 3.472C34.767 3.76 35.199 4.18667 35.5084 4.752C35.8284 5.31733 35.9884 6 35.9884 6.8V12H34.1804V7.072C34.1804 6.28267 33.983 5.68 33.5884 5.264C33.1937 4.83733 32.655 4.624 31.9724 4.624C31.2897 4.624 30.7457 4.83733 30.3404 5.264C29.9457 5.68 29.7484 6.28267 29.7484 7.072V12H27.9404V7.072C27.9404 6.28267 27.743 5.68 27.3484 5.264C26.9537 4.83733 26.415 4.624 25.7324 4.624C25.0497 4.624 24.5057 4.83733 24.1004 5.264C23.7057 5.68 23.5084 6.28267 23.5084 7.072V12H21.6844V3.184H23.5084V4.192C23.807 3.82933 24.1857 3.54667 24.6444 3.344C25.103 3.14133 25.5937 3.04 26.1164 3.04C26.8204 3.04 27.4497 3.18933 28.0044 3.488C28.559 3.78667 28.9857 4.21867 29.2844 4.784C29.551 4.25067 29.967 3.82933 30.5324 3.52C31.0977 3.2 31.7057 3.04 32.3564 3.04ZM46.3894 7.376C46.3894 7.70667 46.368 8.00533 46.3254 8.272H39.5894C39.6427 8.976 39.904 9.54133 40.3734 9.968C40.8427 10.3947 41.4187 10.608 42.1014 10.608C43.0827 10.608 43.776 10.1973 44.1814 9.376H46.1494C45.8827 10.1867 45.3974 10.8533 44.6934 11.376C44 11.888 43.136 12.144 42.1014 12.144C41.2587 12.144 40.5014 11.9573 39.8294 11.584C39.168 11.2 38.6454 10.6667 38.2614 9.984C37.888 9.29067 37.7014 8.49067 37.7014 7.584C37.7014 6.67733 37.8827 5.88267 38.2454 5.2C38.6187 4.50667 39.136 3.97333 39.7974 3.6C40.4694 3.22667 41.2374 3.04 42.1014 3.04C42.9334 3.04 43.6747 3.22133 44.3254 3.584C44.976 3.94667 45.4827 4.45867 45.8454 5.12C46.208 5.77067 46.3894 6.52267 46.3894 7.376ZM44.4854 6.8C44.4747 6.128 44.2347 5.58933 43.7654 5.184C43.296 4.77867 42.7147 4.576 42.0214 4.576C41.392 4.576 40.8534 4.77867 40.4054 5.184C39.9574 5.57867 39.6907 6.11733 39.6054 6.8H44.4854Z" fill="black"/>
</svg>
