<svg width="40" height="17" viewBox="0 0 40 17" fill="none" xmlns="http://www.w3.org/2000/svg">
<path d="M4.07958 12.112C3.33291 12.112 2.66091 11.984 2.06358 11.728C1.46624 11.4613 0.99691 11.088 0.655576 10.608C0.314243 10.128 0.143576 9.568 0.143576 8.928H2.09558C2.13824 9.408 2.32491 9.80267 2.65558 10.112C2.99691 10.4213 3.47158 10.576 4.07958 10.576C4.70891 10.576 5.19958 10.4267 5.55158 10.128C5.90358 9.81867 6.07958 9.424 6.07958 8.944C6.07958 8.57067 5.96758 8.26667 5.74358 8.032C5.53024 7.79733 5.25824 7.616 4.92758 7.488C4.60758 7.36 4.15958 7.22133 3.58358 7.072C2.85824 6.88 2.26624 6.688 1.80758 6.496C1.35958 6.29333 0.975576 5.984 0.655576 5.568C0.335576 5.152 0.175576 4.59733 0.175576 3.904C0.175576 3.264 0.335576 2.704 0.655576 2.224C0.975576 1.744 1.42358 1.376 1.99958 1.12C2.57558 0.863999 3.24224 0.735999 3.99958 0.735999C5.07691 0.735999 5.95691 1.008 6.63958 1.552C7.33291 2.08533 7.71691 2.82133 7.79158 3.76H5.77558C5.74358 3.35467 5.55158 3.008 5.19958 2.72C4.84758 2.432 4.38358 2.288 3.80758 2.288C3.28491 2.288 2.85824 2.42133 2.52758 2.688C2.19691 2.95467 2.03158 3.33867 2.03158 3.84C2.03158 4.18133 2.13291 4.464 2.33558 4.688C2.54891 4.90133 2.81558 5.072 3.13558 5.2C3.45558 5.328 3.89291 5.46667 4.44758 5.616C5.18358 5.81867 5.78091 6.02133 6.23958 6.224C6.70891 6.42667 7.10358 6.74133 7.42358 7.168C7.75424 7.584 7.91958 8.144 7.91958 8.848C7.91958 9.41333 7.76491 9.94667 7.45558 10.448C7.15691 10.9493 6.71424 11.3547 6.12758 11.664C5.55158 11.9627 4.86891 12.112 4.07958 12.112ZM14.6318 3.04C15.3038 3.04 15.9012 3.184 16.4238 3.472C16.9572 3.76 17.3732 4.18667 17.6718 4.752C17.9812 5.31733 18.1358 6 18.1358 6.8V12H16.3278V7.072C16.3278 6.28267 16.1305 5.68 15.7358 5.264C15.3412 4.83733 14.8025 4.624 14.1198 4.624C13.4372 4.624 12.8932 4.83733 12.4878 5.264C12.0932 5.68 11.8958 6.28267 11.8958 7.072V12H10.0718V0.16H11.8958V4.208C12.2052 3.83467 12.5945 3.54667 13.0638 3.344C13.5438 3.14133 14.0665 3.04 14.6318 3.04ZM24.2865 12.144C23.4545 12.144 22.7025 11.9573 22.0305 11.584C21.3585 11.2 20.8305 10.6667 20.4465 9.984C20.0625 9.29067 19.8705 8.49067 19.8705 7.584C19.8705 6.688 20.0678 5.89333 20.4625 5.2C20.8571 4.50667 21.3958 3.97333 22.0785 3.6C22.7611 3.22667 23.5238 3.04 24.3665 3.04C25.2091 3.04 25.9718 3.22667 26.6545 3.6C27.3371 3.97333 27.8758 4.50667 28.2705 5.2C28.6651 5.89333 28.8625 6.688 28.8625 7.584C28.8625 8.48 28.6598 9.27467 28.2545 9.968C27.8491 10.6613 27.2945 11.2 26.5905 11.584C25.8971 11.9573 25.1291 12.144 24.2865 12.144ZM24.2865 10.56C24.7558 10.56 25.1931 10.448 25.5985 10.224C26.0145 10 26.3505 9.664 26.6065 9.216C26.8625 8.768 26.9905 8.224 26.9905 7.584C26.9905 6.944 26.8678 6.40533 26.6225 5.968C26.3771 5.52 26.0518 5.184 25.6465 4.96C25.2411 4.736 24.8038 4.624 24.3345 4.624C23.8651 4.624 23.4278 4.736 23.0225 4.96C22.6278 5.184 22.3131 5.52 22.0785 5.968C21.8438 6.40533 21.7265 6.944 21.7265 7.584C21.7265 8.53333 21.9665 9.26933 22.4465 9.792C22.9371 10.304 23.5505 10.56 24.2865 10.56ZM32.4896 4.48C32.7989 4.07467 33.2202 3.73333 33.7536 3.456C34.2869 3.17867 34.8896 3.04 35.5616 3.04C36.3296 3.04 37.0282 3.232 37.6576 3.616C38.2976 3.98933 38.7989 4.51733 39.1616 5.2C39.5242 5.88267 39.7056 6.66667 39.7056 7.552C39.7056 8.43733 39.5242 9.232 39.1616 9.936C38.7989 10.6293 38.2976 11.1733 37.6576 11.568C37.0282 11.952 36.3296 12.144 35.5616 12.144C34.8896 12.144 34.2922 12.0107 33.7696 11.744C33.2469 11.4667 32.8202 11.1253 32.4896 10.72V16.192H30.6656V3.184H32.4896V4.48ZM37.8496 7.552C37.8496 6.944 37.7216 6.42133 37.4656 5.984C37.2202 5.536 36.8896 5.2 36.4736 4.976C36.0682 4.74133 35.6309 4.624 35.1616 4.624C34.7029 4.624 34.2656 4.74133 33.8496 4.976C33.4442 5.21067 33.1136 5.552 32.8576 6C32.6122 6.448 32.4896 6.976 32.4896 7.584C32.4896 8.192 32.6122 8.72533 32.8576 9.184C33.1136 9.632 33.4442 9.97333 33.8496 10.208C34.2656 10.4427 34.7029 10.56 35.1616 10.56C35.6309 10.56 36.0682 10.4427 36.4736 10.208C36.8896 9.96267 37.2202 9.61067 37.4656 9.152C37.7216 8.69333 37.8496 8.16 37.8496 7.552Z" fill="black"/>
</svg>
